<?xml version="1.0" standalone="no"?>
<!DOCTYPE svg PUBLIC "-//W3C//DTD SVG 20010904//EN"
 "http://www.w3.org/TR/2001/REC-SVG-20010904/DTD/svg10.dtd">
<svg version="1.0" xmlns="http://www.w3.org/2000/svg"
 width="236.000000pt" height="236.000000pt" viewBox="0 0 236.000000 236.000000"
 preserveAspectRatio="xMidYMid meet">

<g transform="translate(0.000000,236.000000) scale(0.100000,-0.100000)"
fill="#000000" stroke="none">
<path d="M1074 1777 c-84 -45 -222 -133 -298 -192 -20 -15 -16 -42 9 -51 8 -4
99 37 207 92 l192 97 41 -23 c156 -89 347 -181 364 -175 40 12 31 33 -37 83
-119 88 -342 222 -368 222 -5 0 -54 -24 -110 -53z"/>
<path d="M1160 1627 c-52 -26 -29 -97 30 -97 60 0 74 71 20 100 -23 12 -20 12
-50 -3z"/>
<path d="M1340 1498 c-73 -38 -77 -39 -165 -36 -76 3 -100 9 -159 36 -37 18
-70 32 -71 32 -2 0 -10 -7 -19 -15 -21 -21 -11 -41 40 -76 49 -33 51 -45 38
-177 -7 -59 -7 -60 -41 -67 -48 -9 -83 -26 -83 -40 0 -25 34 -44 70 -39 19 3
145 8 280 11 151 3 250 9 258 15 25 21 7 42 -48 58 l-55 16 -3 99 -3 98 43 44
c35 36 41 47 32 61 -16 25 -32 23 -114 -20z m-32 -178 c4 -80 -3 -110 -26
-110 -32 0 -42 22 -42 92 0 62 2 70 23 78 36 14 42 7 45 -60z m-159 51 c10 -6
14 -30 15 -75 1 -73 -7 -86 -56 -86 l-28 0 0 85 0 85 28 0 c15 0 33 -4 41 -9z"/>
<path d="M762 1007 c-7 -8 -10 -16 -7 -19 7 -6 -43 -118 -63 -140 -14 -17 -13
-18 17 -18 29 0 31 2 25 25 -6 24 -4 25 34 25 26 0 42 -5 46 -15 3 -8 1 -15
-4 -15 -6 0 -10 -4 -10 -10 0 -5 16 -10 35 -10 19 0 35 5 35 10 0 6 -4 10 -8
10 -5 0 -23 35 -42 78 -40 92 -43 97 -58 79z m18 -66 c0 -5 3 -16 6 -25 4 -12
0 -16 -15 -16 -22 0 -25 8 -15 34 7 17 24 22 24 7z"/>
<path d="M916 994 c-29 -29 -11 -61 47 -83 36 -14 46 -40 22 -57 -25 -19 -32
-18 -52 6 -23 27 -33 25 -33 -5 0 -23 4 -25 45 -25 32 0 51 6 65 20 35 35 20
70 -40 94 -42 17 -52 39 -23 51 12 4 24 -1 35 -14 21 -27 28 -26 28 4 0 22 -4
25 -39 25 -23 0 -46 -7 -55 -16z"/>
<path d="M1065 920 l0 -90 26 0 c26 0 26 2 21 46 l-5 45 39 -3 c32 -2 40 -7
42 -27 2 -13 -1 -28 -7 -34 -18 -18 -13 -27 17 -27 l27 0 0 90 0 90 -29 0
c-24 0 -26 -2 -16 -14 6 -8 10 -25 8 -38 -2 -19 -10 -24 -42 -26 l-38 -3 4 40
c3 38 2 41 -22 41 -25 0 -25 0 -25 -90z"/>
<path d="M1266 998 c8 -12 6 -122 -2 -150 -5 -16 3 -18 65 -18 69 0 71 1 71
25 0 27 -15 34 -24 10 -3 -9 -18 -15 -36 -15 -28 0 -30 3 -30 35 0 34 12 46
25 25 11 -18 25 -10 25 15 0 25 -14 33 -25 15 -12 -20 -25 -9 -25 20 0 27 3
30 30 30 17 0 30 -4 30 -10 0 -5 5 -10 10 -10 6 0 10 9 10 20 0 18 -7 20 -66
20 -47 0 -63 -3 -58 -12z"/>
<path d="M1450 996 c-21 -27 -7 -60 35 -82 43 -22 52 -49 23 -68 -13 -8 -22
-6 -41 12 -30 28 -37 28 -37 -3 0 -23 3 -25 48 -25 92 0 111 64 32 110 -47 28
-52 39 -25 55 13 8 20 5 32 -12 20 -30 33 -29 33 2 0 23 -4 25 -44 25 -26 0
-48 -6 -56 -14z"/>
<path d="M1598 998 c7 -7 12 -40 12 -78 0 -38 -5 -71 -12 -78 -9 -9 -3 -12 27
-12 30 0 36 3 27 12 -7 7 -12 40 -12 78 0 38 5 71 12 78 9 9 3 12 -27 12 -30
0 -36 -3 -27 -12z"/>
<path d="M398 728 c7 -7 12 -39 12 -73 0 -34 5 -66 12 -73 16 -16 90 -16 106
0 7 7 12 39 12 73 0 34 5 66 12 73 9 9 7 12 -13 12 -23 0 -24 -2 -24 -71 0
-57 -4 -74 -17 -83 -13 -8 -23 -8 -35 0 -14 9 -18 26 -18 83 l0 71 -29 0 c-23
0 -27 -3 -18 -12z"/>
<path d="M588 728 c7 -7 12 -39 12 -73 0 -34 -5 -66 -12 -73 -9 -9 -4 -12 22
-12 26 0 31 3 22 12 -7 7 -12 37 -12 67 l0 55 45 -65 c25 -35 50 -65 55 -67 6
-2 10 27 10 70 0 44 5 79 12 86 9 9 6 12 -14 12 -24 0 -25 -2 -20 -50 2 -27 2
-50 0 -50 -3 0 -20 22 -39 50 -28 41 -39 50 -63 50 -23 0 -27 -3 -18 -12z"/>
<path d="M778 728 c7 -7 12 -39 12 -73 0 -34 -5 -66 -12 -73 -9 -9 -5 -12 18
-12 l29 0 0 85 0 85 -29 0 c-23 0 -27 -3 -18 -12z"/>
<path d="M880 687 c15 -30 32 -68 38 -85 6 -18 15 -32 19 -32 5 0 26 38 48 85
40 84 40 85 17 85 -13 0 -22 -5 -20 -12 2 -15 -21 -89 -32 -101 -4 -4 -16 14
-27 42 -15 36 -18 52 -10 60 8 8 1 11 -24 11 l-36 0 27 -53z"/>
<path d="M1055 655 l0 -85 63 0 c61 0 62 0 62 28 -1 24 -2 25 -14 10 -8 -11
-26 -18 -45 -18 -28 0 -31 3 -31 30 0 31 17 39 38 18 9 -9 12 -6 12 15 0 24
-3 27 -25 21 -22 -5 -25 -3 -25 20 0 22 4 26 30 26 17 0 30 -4 30 -10 0 -5 5
-10 10 -10 6 0 10 9 10 20 0 18 -7 20 -57 20 l-58 0 0 -85z"/>
<path d="M1208 728 c7 -7 12 -39 12 -73 0 -34 -5 -66 -12 -73 -9 -9 -3 -12 27
-12 30 0 36 3 27 12 -14 14 -16 68 -2 68 5 0 21 -18 35 -40 20 -31 31 -40 53
-40 23 1 25 2 11 13 -8 7 -23 24 -33 39 -17 26 -17 27 3 47 39 39 4 71 -80 71
-41 0 -50 -3 -41 -12z m100 -30 c3 -18 -32 -43 -48 -33 -6 3 -10 17 -10 31 0
22 4 25 27 22 16 -2 29 -10 31 -20z"/>
<path d="M1406 725 c-30 -31 -18 -57 38 -80 40 -17 45 -39 14 -59 -13 -8 -22
-5 -43 14 l-25 23 0 -25 c0 -21 6 -27 30 -30 34 -5 68 9 84 35 15 23 -1 47
-47 70 -39 20 -48 43 -21 54 11 4 23 -2 35 -18 l19 -24 0 25 c0 22 -5 26 -34
28 -21 2 -40 -4 -50 -13z"/>
<path d="M1538 728 c7 -7 12 -39 12 -73 0 -34 -5 -66 -12 -73 -9 -9 -5 -12 18
-12 l29 0 0 85 0 85 -29 0 c-23 0 -27 -3 -18 -12z"/>
<path d="M1614 720 c0 -11 6 -20 13 -20 7 0 13 5 13 10 0 6 9 10 20 10 18 0
20 -7 20 -63 0 -36 -5 -68 -12 -75 -9 -9 -3 -12 28 -11 21 0 33 3 27 6 -20 7
-18 143 1 143 8 0 18 -4 21 -10 10 -17 25 -11 25 10 0 18 -7 20 -78 20 -71 0
-78 -2 -78 -20z"/>
<path d="M1790 730 c0 -5 3 -10 8 -10 12 0 62 -86 62 -107 0 -10 -5 -24 -12
-31 -9 -9 -5 -12 18 -12 28 0 30 2 26 34 -3 26 3 45 27 80 17 24 31 47 31 50
0 3 -12 6 -26 6 -20 0 -24 -3 -16 -13 8 -9 5 -19 -9 -37 l-19 -25 -19 24 c-10
14 -17 31 -14 38 4 9 -4 13 -26 13 -17 0 -31 -4 -31 -10z"/>
</g>
</svg>
